<svg width="426" height="351" fill="none" xmlns="http://www.w3.org/2000/svg"><path d="M299.898 320.204a138.008 138.008 0 0 0 45.95-69.847 138.007 138.007 0 0 0-53.354-150.161A138.001 138.001 0 0 0 80.275 250.791a137.992 137.992 0 0 0 46.179 69.697L213 213l86.898 107.204Z" fill="#fff" fill-opacity=".25"/><circle cx="213" cy="213" r="114" fill="#fff"/><path opacity=".4" fill-rule="evenodd" clip-rule="evenodd" d="m373.997 214.01 12 .074a195.575 195.575 0 0 0 0-2.168l-12 .074a169.767 169.767 0 0 1 0 2.02Zm-5.188-41.731 11.612-3.026c-.182-.697-.368-1.393-.558-2.088l-11.573 3.172c.177.646.35 1.293.519 1.942Zm-15.848-38.913 10.424-5.945c-.356-.624-.716-1.247-1.08-1.866l-10.349 6.074c.338.577.673 1.156 1.005 1.737Zm-25.409-33.498 8.538-8.432c-.506-.512-1.014-1.02-1.525-1.526l-8.433 8.538c.476.47.95.944 1.42 1.42Zm-33.181-25.824 6.074-10.349a172.25 172.25 0 0 0-1.866-1.08l-5.945 10.424c.581.332 1.16.667 1.737 1.005ZM255.663 57.71l3.172-11.573c-.695-.19-1.391-.376-2.088-.558l-3.026 11.612c.649.17 1.296.342 1.942.52Zm-41.653-5.707.074-12a177.796 177.796 0 0 0-2.168 0l.074 12a161.687 161.687 0 0 1 2.02 0Zm-41.731 5.188-3.026-11.612c-.697.182-1.393.368-2.088.558l3.172 11.573a158.4 158.4 0 0 1 1.942-.519ZM133.366 73.04l-5.945-10.424c-.624.356-1.247.716-1.866 1.08l6.074 10.35c.577-.34 1.156-.674 1.737-1.006ZM99.868 98.448l-8.432-8.538a182.84 182.84 0 0 0-1.526 1.525l8.538 8.433c.47-.476.944-.95 1.42-1.42Zm-25.824 33.181-10.349-6.074a172.25 172.25 0 0 0-1.08 1.866l10.424 5.945c.332-.581.667-1.16 1.005-1.737ZM57.71 170.337l-11.573-3.172c-.19.695-.376 1.391-.558 2.088l11.612 3.026c.17-.649.342-1.296.52-1.942ZM40 213c0-.362.001-.723.003-1.084l12 .074a161.687 161.687 0 0 0 0 2.02l-12 .074c-.002-.361-.003-.722-.003-1.084Zm17.191 40.721-11.612 3.026c.182.697.368 1.393.558 2.088l11.573-3.172a160.22 160.22 0 0 1-.519-1.942Zm15.848 38.913-10.424 5.945c.356.624.716 1.247 1.08 1.866l10.35-6.074c-.34-.577-.674-1.156-1.006-1.737Zm25.409 33.498-8.538 8.433a182.85 182.85 0 0 0 1.526 1.525l8.432-8.538c-.476-.47-.95-.944-1.42-1.42Zm227.684 1.42 8.433 8.538c.511-.506 1.019-1.014 1.525-1.525l-8.538-8.433c-.47.476-.944.95-1.42 1.42Zm25.824-33.181 10.349 6.074c.364-.619.724-1.242 1.08-1.866l-10.424-5.945c-.332.581-.667 1.16-1.005 1.737Zm16.334-38.708 11.573 3.172c.19-.695.376-1.391.558-2.088l-11.612-3.026a158.4 158.4 0 0 1-.519 1.942Z" fill="#fff"/><path fill-rule="evenodd" clip-rule="evenodd" d="m385.997 214.084-12-.074a169.767 169.767 0 0 0 0-2.02l12-.074a195.575 195.575 0 0 1 0 2.168ZM214.084 40.004l-.074 12a161.687 161.687 0 0 0-2.02 0l-.074-12a177.796 177.796 0 0 1 2.168 0ZM40.004 211.915a177.796 177.796 0 0 0 0 2.168l12-.074a161.687 161.687 0 0 1 0-2.02l-12-.074Z" fill="#fff"/><path d="M12.045 223v-20m2.713 1.739-2.713 2.609m-2.714-2.609 2.714 2.609m2.713 13.913-2.713-2.609m-2.714 2.609 2.714-2.609m8.955-.608-18-10m2.896-1.392.994 3.566m-3.708.869 3.708-.87m13.929 4.696-3.709.957m.995 3.478-.995-3.478m3.89-7.826-18 10m.182-3.131 3.708.957m-.994 3.478.994-3.478m11.215-9.218-.995 3.566m3.709.869-3.709-.87" stroke="#fff" stroke-width="1.5" stroke-miterlimit="10" stroke-linecap="round"/><circle cx="414" cy="213" r="6.45" stroke="#fff" stroke-width="1.5"/><circle cx="414" cy="203.4" r="1.2" fill="#fff"/><circle cx="420.789" cy="206.212" r="1.2" transform="rotate(45 420.789 206.212)" fill="#fff"/><circle cx="414" cy="222.6" r="1.2" fill="#fff"/><circle cx="407.212" cy="219.788" r="1.2" transform="rotate(45 407.212 219.788)" fill="#fff"/><circle r="1.2" transform="matrix(1 0 0 -1 404.4 213)" fill="#fff"/><circle r="1.2" transform="scale(1 -1) rotate(-45 -45.314 -594.654)" fill="#fff"/><circle r="1.2" transform="matrix(1 0 0 -1 423.6 213)" fill="#fff"/><circle r="1.2" transform="scale(1 -1) rotate(-45 -54.914 -617.83)" fill="#fff"/><circle cx="212" cy="12" r="6.45" stroke="#fff" stroke-width="1.5"/><circle cx="212" cy="2.4" r="1.2" fill="#fff"/><circle cx="218.789" cy="5.212" r="1.2" transform="rotate(45 218.789 5.212)" fill="#fff"/><circle cx="212" cy="21.6" r="1.2" fill="#fff"/><circle cx="205.212" cy="18.788" r="1.2" transform="rotate(45 205.212 18.788)" fill="#fff"/><circle r="1.2" transform="matrix(1 0 0 -1 202.4 12)" fill="#fff"/><circle r="1.2" transform="scale(1 -1) rotate(-45 96.315 -250.319)" fill="#fff"/><circle r="1.2" transform="matrix(1 0 0 -1 221.6 12)" fill="#fff"/><circle r="1.2" transform="scale(1 -1) rotate(-45 86.715 -273.494)" fill="#fff"/></svg>