<svg width="426" height="351" viewBox="0 0 426 351" fill="none" xmlns="http://www.w3.org/2000/svg">
<path d="M299.898 320.204C322.068 302.233 338.122 277.83 345.848 250.357C353.573 222.883 352.591 193.689 343.036 166.797C333.481 139.905 315.823 116.636 292.494 100.196C269.165 83.7563 241.314 74.9535 212.774 75.0002C184.235 75.0469 156.412 83.9408 133.137 100.457C109.862 116.973 92.2808 140.299 82.8138 167.223C73.3467 194.146 72.4599 223.343 80.2754 250.791C88.0909 278.24 104.224 302.59 126.454 320.488L213 213L299.898 320.204Z" fill="white" fill-opacity="0.25"/>
<circle cx="213" cy="213" r="114" fill="white"/>
<path opacity="0.4" fill-rule="evenodd" clip-rule="evenodd" d="M373.997 214.01L385.997 214.084C385.999 213.723 386 213.362 386 213C386 212.638 385.999 212.277 385.997 211.916L373.997 211.99C373.999 212.326 374 212.663 374 213C374 213.337 373.999 213.674 373.997 214.01ZM368.809 172.279L380.421 169.253C380.239 168.556 380.053 167.86 379.863 167.165L368.29 170.337C368.467 170.983 368.64 171.63 368.809 172.279ZM352.961 133.366L363.385 127.421C363.029 126.797 362.669 126.174 362.305 125.555L351.956 131.629C352.294 132.206 352.629 132.785 352.961 133.366ZM327.552 99.868L336.09 91.4355C335.584 90.9239 335.076 90.4156 334.565 89.9103L326.132 98.448C326.608 98.9184 327.082 99.3918 327.552 99.868ZM294.371 74.0442L300.445 63.6952C299.826 63.3314 299.203 62.9714 298.579 62.6151L292.634 73.0391C293.215 73.3706 293.794 73.7057 294.371 74.0442ZM255.663 57.7102L258.835 46.137C258.14 45.9467 257.444 45.7607 256.747 45.5789L253.721 57.1912C254.37 57.3603 255.017 57.5333 255.663 57.7102ZM214.01 52.0031L214.084 40.0033C213.723 40.0011 213.362 40 213 40C212.638 40 212.277 40.0011 211.916 40.0033L211.99 52.0031C212.326 52.001 212.663 52 213 52C213.337 52 213.674 52.001 214.01 52.0031ZM172.279 57.1912L169.253 45.5789C168.556 45.7607 167.86 45.9467 167.165 46.137L170.337 57.7102C170.983 57.5333 171.63 57.3602 172.279 57.1912ZM133.366 73.0391L127.421 62.6151C126.797 62.9713 126.174 63.3314 125.555 63.6952L131.629 74.0442C132.206 73.7057 132.785 73.3706 133.366 73.0391ZM99.868 98.448L91.4355 89.9103C90.9239 90.4155 90.4156 90.9239 89.9103 91.4354L98.448 99.868C98.9184 99.3917 99.3918 98.9184 99.868 98.448ZM74.0442 131.629L63.6952 125.555C63.3314 126.174 62.9714 126.797 62.6151 127.421L73.0391 133.366C73.3706 132.785 73.7057 132.206 74.0442 131.629ZM57.7102 170.337L46.137 167.165C45.9467 167.86 45.7607 168.556 45.5789 169.253L57.1912 172.279C57.3603 171.63 57.5333 170.983 57.7102 170.337ZM40 213C40 212.638 40.0011 212.277 40.0033 211.916L52.0031 211.99C52.001 212.326 52 212.663 52 213C52 213.337 52.001 213.674 52.0031 214.01L40.0033 214.084C40.0011 213.723 40 213.362 40 213ZM57.1912 253.721L45.5789 256.747C45.7607 257.444 45.9467 258.14 46.137 258.835L57.7102 255.663C57.5333 255.017 57.3602 254.37 57.1912 253.721ZM73.0391 292.634L62.6151 298.579C62.9714 299.203 63.3314 299.826 63.6952 300.445L74.0442 294.371C73.7057 293.794 73.3706 293.215 73.0391 292.634ZM98.448 326.132L89.9103 334.565C90.4155 335.076 90.9239 335.584 91.4355 336.09L99.868 327.552C99.3917 327.082 98.9184 326.608 98.448 326.132ZM326.132 327.552L334.565 336.09C335.076 335.584 335.584 335.076 336.09 334.565L327.552 326.132C327.082 326.608 326.608 327.082 326.132 327.552ZM351.956 294.371L362.305 300.445C362.669 299.826 363.029 299.203 363.385 298.579L352.961 292.634C352.629 293.215 352.294 293.794 351.956 294.371ZM368.29 255.663L379.863 258.835C380.053 258.14 380.239 257.444 380.421 256.747L368.809 253.721C368.64 254.37 368.467 255.017 368.29 255.663Z" fill="white"/>
<path fill-rule="evenodd" clip-rule="evenodd" d="M385.997 214.084L373.997 214.01C373.999 213.674 374 213.337 374 213C374 212.663 373.999 212.326 373.997 211.99L385.997 211.916C385.999 212.277 386 212.638 386 213C386 213.362 385.999 213.723 385.997 214.084ZM214.084 40.0033L214.01 52.0031C213.674 52.001 213.337 52 213 52C212.663 52 212.326 52.001 211.99 52.0031L211.916 40.0033C212.277 40.0011 212.638 40 213 40C213.362 40 213.723 40.0011 214.084 40.0033ZM40.0033 211.916C40.0011 212.277 40 212.638 40 213C40 213.362 40.0011 213.723 40.0033 214.084L52.0031 214.01C52.001 213.674 52 213.337 52 213C52 212.663 52.001 212.326 52.0031 211.99L40.0033 211.916Z" fill="white"/>
<path d="M12.0449 223V203" stroke="white" stroke-width="1.5" stroke-miterlimit="10" stroke-linecap="round"/>
<path d="M14.7585 204.739L12.0449 207.348" stroke="white" stroke-width="1.5" stroke-miterlimit="10" stroke-linecap="round"/>
<path d="M9.33105 204.739L12.0446 207.348" stroke="white" stroke-width="1.5" stroke-miterlimit="10" stroke-linecap="round"/>
<path d="M14.7585 221.261L12.0449 218.652" stroke="white" stroke-width="1.5" stroke-miterlimit="10" stroke-linecap="round"/>
<path d="M9.33105 221.261L12.0446 218.652" stroke="white" stroke-width="1.5" stroke-miterlimit="10" stroke-linecap="round"/>
<path d="M21 218.044L3 208.044" stroke="white" stroke-width="1.5" stroke-miterlimit="10" stroke-linecap="round"/>
<path d="M5.89551 206.652L6.89048 210.218" stroke="white" stroke-width="1.5" stroke-miterlimit="10" stroke-linecap="round"/>
<path d="M3.18164 211.087L6.89018 210.217" stroke="white" stroke-width="1.5" stroke-miterlimit="10" stroke-linecap="round"/>
<path d="M20.8189 214.913L17.1104 215.87" stroke="white" stroke-width="1.5" stroke-miterlimit="10" stroke-linecap="round"/>
<path d="M18.1053 219.348L17.1104 215.87" stroke="white" stroke-width="1.5" stroke-miterlimit="10" stroke-linecap="round"/>
<path d="M21 208.044L3 218.044" stroke="white" stroke-width="1.5" stroke-miterlimit="10" stroke-linecap="round"/>
<path d="M3.18164 214.913L6.89018 215.87" stroke="white" stroke-width="1.5" stroke-miterlimit="10" stroke-linecap="round"/>
<path d="M5.89551 219.348L6.89048 215.87" stroke="white" stroke-width="1.5" stroke-miterlimit="10" stroke-linecap="round"/>
<path d="M18.1053 206.652L17.1104 210.218" stroke="white" stroke-width="1.5" stroke-miterlimit="10" stroke-linecap="round"/>
<path d="M20.8189 211.087L17.1104 210.217" stroke="white" stroke-width="1.5" stroke-miterlimit="10" stroke-linecap="round"/>
<circle cx="414" cy="213" r="6.45" stroke="white" stroke-width="1.5"/>
<circle cx="414" cy="203.4" r="1.2" fill="white"/>
<circle cx="420.789" cy="206.212" r="1.2" transform="rotate(45 420.789 206.212)" fill="white"/>
<circle cx="414" cy="222.6" r="1.2" fill="white"/>
<circle cx="407.212" cy="219.788" r="1.2" transform="rotate(45 407.212 219.788)" fill="white"/>
<circle r="1.2" transform="matrix(1 0 0 -1 404.4 213)" fill="white"/>
<circle r="1.2" transform="matrix(0.707107 0.707107 0.707107 -0.707107 407.212 206.212)" fill="white"/>
<circle r="1.2" transform="matrix(1 0 0 -1 423.6 213)" fill="white"/>
<circle r="1.2" transform="matrix(0.707107 0.707107 0.707107 -0.707107 420.788 219.788)" fill="white"/>
<circle cx="212" cy="11.9999" r="6.45" stroke="white" stroke-width="1.5"/>
<circle cx="212" cy="2.39995" r="1.2" fill="white"/>
<circle cx="218.789" cy="5.2117" r="1.2" transform="rotate(45 218.789 5.2117)" fill="white"/>
<circle cx="212" cy="21.5999" r="1.2" fill="white"/>
<circle cx="205.212" cy="18.7882" r="1.2" transform="rotate(45 205.212 18.7882)" fill="white"/>
<circle r="1.2" transform="matrix(1 0 0 -1 202.4 12)" fill="white"/>
<circle r="1.2" transform="matrix(0.707107 0.707107 0.707107 -0.707107 205.212 5.21167)" fill="white"/>
<circle r="1.2" transform="matrix(1 0 0 -1 221.6 12)" fill="white"/>
<circle r="1.2" transform="matrix(0.707107 0.707107 0.707107 -0.707107 218.788 18.7882)" fill="white"/>
</svg>
